<svg width="18" height="18" viewBox="0 0 18 18" fill="none" xmlns="http://www.w3.org/2000/svg">
<path d="M17.4722 5.73125C17.4722 12.202 9.3765 17.4396 9.03173 17.6559C8.94086 17.7139 8.83929 17.7442 8.73611 17.7442C8.63293 17.7442 8.53135 17.7139 8.44049 17.6559C8.09572 17.4396 0 12.202 0 5.73125C0.00144515 4.21175 0.511421 2.75498 1.41805 1.68054C2.32467 0.606089 3.5539 0.00171266 4.83606 0C6.44678 0 7.85704 0.820863 8.73611 2.20838C9.61518 0.820863 11.0254 0 12.6362 0C13.9183 0.00171266 15.1476 0.606089 16.0542 1.68054C16.9608 2.75498 17.4708 4.21175 17.4722 5.73125Z" fill="#00A36C"/>
</svg>
